<?xml version="1.0" standalone="no"?>
<!DOCTYPE svg PUBLIC "-//W3C//DTD SVG 20010904//EN"
 "http://www.w3.org/TR/2001/REC-SVG-20010904/DTD/svg10.dtd">
<svg version="1.0" xmlns="http://www.w3.org/2000/svg"
 width="880.000000pt" height="693.000000pt" viewBox="0 0 880.000000 693.000000"
 preserveAspectRatio="xMidYMid meet">

<g transform="translate(0.000000,693.000000) scale(0.100000,-0.100000)"
fill="#000000" stroke="none">
<path d="M6335 6273 c-87 -136 -159 -250 -161 -252 -2 -2 -44 20 -94 49 -50
29 -95 48 -99 44 -5 -5 -82 -197 -172 -428 l-164 -418 -55 7 c-123 17 -103 37
-193 -198 l-80 -208 -36 42 -36 41 -150 -316 c-140 -295 -155 -323 -229 -412
l-79 -96 -27 73 c-23 66 -56 113 -314 444 -159 204 -294 376 -301 383 -9 10
-41 -26 -150 -168 -76 -99 -141 -180 -144 -179 -3 0 -64 63 -136 140 -123 133
-130 138 -141 117 -6 -13 -60 -157 -119 -320 -60 -164 -111 -298 -114 -298 -3
1 -35 37 -70 80 -36 44 -66 79 -67 77 -1 -1 -98 -256 -214 -567 -117 -311
-213 -566 -215 -568 -1 -1 -23 14 -48 33 -25 19 -48 35 -50 35 -3 0 -56 -90
-118 -200 l-112 -200 -41 24 c-23 13 -66 37 -97 55 l-55 31 -43 -76 c-24 -42
-47 -72 -51 -67 -10 10 -330 732 -330 744 0 36 -34 -29 -154 -298 -76 -170
-171 -379 -210 -466 l-71 -159 -76 7 -76 7 -139 -256 c-76 -141 -142 -256
-146 -256 -4 0 -32 48 -62 108 -50 99 -55 105 -64 82 -5 -14 -40 -106 -77
-205 -37 -99 -71 -184 -76 -189 -4 -5 -16 7 -25 28 -10 20 -21 36 -24 36 -12
0 -223 -541 -214 -549 8 -7 189 -81 198 -81 2 0 12 20 22 45 9 25 20 45 24 45
4 0 13 -13 20 -30 27 -66 34 -58 100 117 35 93 70 184 78 203 l14 35 38 -74
c37 -75 37 -75 52 -50 9 13 104 186 212 385 l196 360 52 -7 c122 -17 95 -49
252 301 77 171 143 307 146 303 4 -5 40 -82 79 -173 235 -534 234 -533 249
-513 7 10 52 87 99 171 48 83 91 152 96 152 5 0 50 -23 99 -51 49 -28 91 -50
92 -48 2 2 49 86 106 187 56 100 105 182 109 182 3 0 33 -21 65 -45 33 -25 62
-45 65 -45 3 0 94 234 201 520 107 286 198 520 202 520 4 0 35 -34 69 -75 34
-41 64 -75 68 -75 3 0 60 147 125 328 66 180 122 329 124 332 2 3 49 -42 103
-100 98 -104 99 -105 117 -84 9 11 68 87 130 167 62 81 116 147 120 146 4 0
95 -114 203 -252 l195 -252 79 -243 c43 -133 82 -241 86 -240 3 2 102 118 220
260 l214 256 80 171 c44 94 83 170 86 168 3 -1 25 -23 47 -50 36 -41 42 -45
50 -30 5 10 58 146 117 302 l109 283 50 -8 c28 -4 66 -8 84 -8 l33 -1 151 385
c83 212 152 387 154 389 3 3 38 -13 78 -35 41 -21 76 -37 79 -34 2 3 57 89
123 192 65 103 122 187 126 185 4 -1 177 -254 384 -562 207 -308 451 -669 541
-803 l165 -243 26 17 c114 74 162 108 160 113 -3 6 -149 223 -941 1399 -181
268 -332 491 -336 495 -5 4 -79 -104 -166 -240z"/>
<path d="M7766 4222 c-3 -5 -12 -31 -21 -58 -23 -69 -40 -91 -85 -114 -50 -25
-50 -25 -50 8 0 40 -61 92 -108 92 -23 0 -72 -46 -72 -68 0 -19 49 -72 66 -72
31 0 21 -23 -34 -78 -68 -68 -144 -204 -125 -223 21 -21 48 1 97 77 27 42 65
86 83 99 l34 23 78 -79 c48 -48 96 -87 124 -99 43 -19 49 -20 76 -5 16 8 33
20 37 26 16 26 90 49 164 50 118 2 134 8 138 48 4 36 -14 91 -30 91 -5 0 -15
-14 -21 -30 -13 -35 -40 -45 -93 -37 -19 3 -59 -1 -90 -9 -74 -19 -75 -19 -63
16 6 16 44 60 85 96 41 37 74 75 74 85 0 19 -56 89 -71 89 -5 0 -9 -19 -10
-42 0 -41 -3 -45 -68 -95 -53 -40 -70 -60 -79 -92 -15 -47 -22 -45 -84 24
l-37 42 44 31 c63 45 80 75 80 146 0 48 -3 61 -17 64 -9 2 -19 -1 -22 -6z"/>
<path d="M7130 3641 c0 -5 8 -23 17 -40 18 -30 17 -32 -11 -113 -16 -46 -27
-92 -25 -102 2 -11 30 -34 67 -54 70 -38 76 -48 86 -142 7 -64 6 -67 -27 -110
-64 -84 -89 -205 -43 -205 15 0 23 12 34 54 16 64 50 117 64 103 6 -6 4 -19
-8 -36 -36 -56 26 -154 90 -142 57 12 70 44 41 100 -22 41 -19 65 10 78 38 17
76 -4 105 -60 43 -82 81 -61 45 25 -22 53 -43 73 -102 99 -56 25 -57 27 -67
124 -4 30 -11 80 -16 110 -9 49 -7 67 22 167 23 81 29 116 21 124 -13 13 -87
24 -109 15 -15 -6 -14 -10 10 -35 26 -27 27 -32 16 -65 -6 -20 -15 -38 -20
-41 -5 -3 -14 -30 -20 -61 -9 -43 -15 -54 -27 -50 -8 3 -33 9 -55 12 -46 8
-45 3 -3 122 22 62 24 76 13 89 -24 30 -108 56 -108 34z"/>
<path d="M8240 2910 c-62 -79 -93 -96 -148 -85 -54 12 -96 11 -191 -4 -118
-18 -238 -57 -252 -82 -9 -17 -17 -19 -48 -14 -20 3 -49 1 -64 -4 -23 -9 -27
-16 -27 -48 0 -21 4 -43 8 -49 19 -29 86 -43 127 -28 9 4 21 17 26 30 4 13 14
24 20 24 8 0 10 -23 7 -75 l-3 -75 -54 -54 c-36 -36 -52 -60 -48 -70 12 -31
70 -11 119 41 35 37 44 63 53 153 l7 74 20 -38 c11 -22 27 -80 35 -129 8 -50
18 -99 24 -109 13 -24 36 -23 44 3 11 32 -5 169 -25 229 -10 30 -18 55 -17 56
1 1 26 8 54 17 60 17 63 15 82 -50 15 -56 31 -69 88 -77 125 -17 124 -16 146
-53 19 -33 21 -34 34 -17 7 10 13 37 13 61 0 52 -8 56 -114 73 -73 12 -79 15
-91 44 -30 74 -31 73 29 80 80 10 134 42 184 109 43 56 44 57 83 51 48 -8 50
3 8 51 -45 51 -65 46 -129 -35z"/>
<path d="M7325 2213 c-14 -13 -16 -27 -10 -71 l7 -55 -29 7 c-129 29 -167 17
-206 -62 -34 -67 -40 -97 -22 -112 23 -19 44 -4 67 47 24 56 32 63 75 63 42 0
67 -25 58 -59 -3 -14 -9 -73 -12 -131 -6 -125 -1 -133 100 -156 42 -10 98 -35
158 -70 51 -30 98 -53 105 -50 34 13 71 116 41 116 -8 0 -20 -7 -27 -15 -7 -8
-19 -15 -27 -15 -15 0 -153 87 -153 96 0 3 35 3 78 0 42 -4 102 -3 132 1 52 8
55 10 63 43 5 23 4 47 -3 64 l-11 29 -32 -34 -32 -34 -118 3 c-133 4 -133 4
-122 78 l6 46 42 -8 c84 -15 169 7 211 54 24 28 14 57 -17 47 -120 -38 -133
-40 -178 -20 -62 26 -68 34 -41 52 33 23 32 104 -3 138 -28 29 -76 33 -100 8z"/>
<path d="M8075 1792 c-47 -6 -51 -19 -12 -42 34 -20 36 -24 42 -88 10 -111 14
-128 40 -152 31 -29 31 -37 3 -61 -34 -27 -62 -23 -122 17 -61 40 -117 52
-170 34 -68 -22 -35 -60 52 -60 45 0 53 -4 86 -40 50 -56 48 -76 -8 -70 -21 2
-62 -33 -82 -72 -16 -31 -8 -63 25 -92 30 -27 70 -12 93 33 24 49 37 59 48 41
16 -25 11 -71 -11 -126 -24 -56 -20 -84 9 -84 43 0 80 74 89 182 l8 83 66 45
c93 63 104 80 106 166 0 40 6 81 12 92 6 11 18 51 27 89 15 67 15 68 -6 85
-25 20 -95 24 -106 6 -4 -6 4 -20 19 -33 32 -25 34 -43 6 -97 -11 -22 -23 -65
-26 -94 -3 -30 -8 -54 -10 -54 -6 0 -44 47 -60 74 -7 12 -13 44 -13 71 -1 49
-14 133 -21 139 -9 7 -56 12 -84 8z"/>
<path d="M7051 1312 c-20 -37 -23 -115 -7 -161 27 -74 21 -104 -29 -166 -25
-31 -50 -67 -55 -80 -5 -14 -7 -87 -3 -170 l6 -145 39 0 c35 0 37 2 26 19 -9
14 -9 35 0 89 7 39 12 85 12 101 0 17 2 31 6 31 3 0 22 -11 42 -25 29 -20 45
-44 78 -117 l41 -93 47 1 c34 0 53 6 68 22 l21 21 -29 6 c-16 4 -35 8 -42 11
-11 3 -33 47 -62 120 -7 18 -6 21 11 17 15 -4 22 3 34 31 29 68 15 154 -33
209 -17 19 -9 33 23 39 12 2 29 22 44 51 20 41 22 51 11 76 -12 29 -46 51 -80
51 -22 0 -50 -47 -50 -84 0 -32 -18 -43 -38 -22 -12 12 -17 36 -18 84 0 37 -2
75 -2 85 -3 23 -48 23 -61 -1z m155 -377 c4 -9 3 -40 -1 -71 -5 -44 -9 -53
-18 -42 -7 8 -24 22 -39 31 -33 21 -35 36 -7 71 23 29 56 34 65 11z"/>
<path d="M7540 885 c-9 -10 -14 -52 -15 -118 -1 -56 -7 -115 -13 -130 -7 -16
-12 -33 -12 -38 0 -15 216 -11 228 4 6 7 24 46 41 87 30 76 31 77 100 97 22 6
-7 31 -55 48 -51 17 -63 7 -105 -94 -34 -83 -51 -106 -89 -126 l-25 -13 1 112
0 111 32 14 c41 18 41 36 1 50 -44 15 -74 14 -89 -4z"/>
</g>
</svg>
